<svg width="24" height="24" viewBox="0 0 24 24" fill="none"
                    xmlns="http://www.w3.org/2000/svg">
                    <path fill-rule="evenodd" clip-rule="evenodd"
                        d="M12.3514 3.95157C12.8201 3.48294 13.5799 3.48294 14.0485 3.95157L21.2485 11.1516C21.7171 11.6202 21.7171 12.38 21.2485 12.8486L14.0485 20.0486C13.5799 20.5173 12.8201 20.5173 12.3514 20.0486C11.8828 19.58 11.8828 18.8202 12.3514 18.3516L17.5029 13.2001L3.59996 13.2001C2.93722 13.2001 2.39996 12.6628 2.39996 12.0001C2.39996 11.3374 2.93722 10.8001 3.59996 10.8001H17.5029L12.3514 5.64863C11.8828 5.18 11.8828 4.4202 12.3514 3.95157Z"
                        fill="white" />
                    <path fill-rule="evenodd" clip-rule="evenodd"
                        d="M12.3514 3.95157C12.8201 3.48294 13.5799 3.48294 14.0485 3.95157L21.2485 11.1516C21.7171 11.6202 21.7171 12.38 21.2485 12.8486L14.0485 20.0486C13.5799 20.5173 12.8201 20.5173 12.3514 20.0486C11.8828 19.58 11.8828 18.8202 12.3514 18.3516L17.5029 13.2001L3.59996 13.2001C2.93722 13.2001 2.39996 12.6628 2.39996 12.0001C2.39996 11.3374 2.93722 10.8001 3.59996 10.8001H17.5029L12.3514 5.64863C11.8828 5.18 11.8828 4.4202 12.3514 3.95157Z"
                        stroke="black" stroke-linecap="round" stroke-linejoin="round" />
                    <path fill-rule="evenodd" clip-rule="evenodd"
                        d="M12.3514 3.95157C12.8201 3.48294 13.5799 3.48294 14.0485 3.95157L21.2485 11.1516C21.7171 11.6202 21.7171 12.38 21.2485 12.8486L14.0485 20.0486C13.5799 20.5173 12.8201 20.5173 12.3514 20.0486C11.8828 19.58 11.8828 18.8202 12.3514 18.3516L17.5029 13.2001L3.59996 13.2001C2.93722 13.2001 2.39996 12.6628 2.39996 12.0001C2.39996 11.3374 2.93722 10.8001 3.59996 10.8001H17.5029L12.3514 5.64863C11.8828 5.18 11.8828 4.4202 12.3514 3.95157Z"
                        stroke="black" stroke-opacity="0.2" stroke-linecap="round" stroke-linejoin="round" />
                    <path fill-rule="evenodd" clip-rule="evenodd"
                        d="M12.3514 3.95157C12.8201 3.48294 13.5799 3.48294 14.0485 3.95157L21.2485 11.1516C21.7171 11.6202 21.7171 12.38 21.2485 12.8486L14.0485 20.0486C13.5799 20.5173 12.8201 20.5173 12.3514 20.0486C11.8828 19.58 11.8828 18.8202 12.3514 18.3516L17.5029 13.2001L3.59996 13.2001C2.93722 13.2001 2.39996 12.6628 2.39996 12.0001C2.39996 11.3374 2.93722 10.8001 3.59996 10.8001H17.5029L12.3514 5.64863C11.8828 5.18 11.8828 4.4202 12.3514 3.95157Z"
                        stroke="black" stroke-opacity="0.2" stroke-linecap="round" stroke-linejoin="round" />
                    <path fill-rule="evenodd" clip-rule="evenodd"
                        d="M12.3514 3.95157C12.8201 3.48294 13.5799 3.48294 14.0485 3.95157L21.2485 11.1516C21.7171 11.6202 21.7171 12.38 21.2485 12.8486L14.0485 20.0486C13.5799 20.5173 12.8201 20.5173 12.3514 20.0486C11.8828 19.58 11.8828 18.8202 12.3514 18.3516L17.5029 13.2001L3.59996 13.2001C2.93722 13.2001 2.39996 12.6628 2.39996 12.0001C2.39996 11.3374 2.93722 10.8001 3.59996 10.8001H17.5029L12.3514 5.64863C11.8828 5.18 11.8828 4.4202 12.3514 3.95157Z"
                        stroke="black" stroke-opacity="0.2" stroke-linecap="round" stroke-linejoin="round" />
                    <path fill-rule="evenodd" clip-rule="evenodd"
                        d="M12.3514 3.95157C12.8201 3.48294 13.5799 3.48294 14.0485 3.95157L21.2485 11.1516C21.7171 11.6202 21.7171 12.38 21.2485 12.8486L14.0485 20.0486C13.5799 20.5173 12.8201 20.5173 12.3514 20.0486C11.8828 19.58 11.8828 18.8202 12.3514 18.3516L17.5029 13.2001L3.59996 13.2001C2.93722 13.2001 2.39996 12.6628 2.39996 12.0001C2.39996 11.3374 2.93722 10.8001 3.59996 10.8001H17.5029L12.3514 5.64863C11.8828 5.18 11.8828 4.4202 12.3514 3.95157Z"
                        stroke="black" stroke-opacity="0.2" stroke-linecap="round" stroke-linejoin="round" />
                    <path fill-rule="evenodd" clip-rule="evenodd"
                        d="M12.3514 3.95157C12.8201 3.48294 13.5799 3.48294 14.0485 3.95157L21.2485 11.1516C21.7171 11.6202 21.7171 12.38 21.2485 12.8486L14.0485 20.0486C13.5799 20.5173 12.8201 20.5173 12.3514 20.0486C11.8828 19.58 11.8828 18.8202 12.3514 18.3516L17.5029 13.2001L3.59996 13.2001C2.93722 13.2001 2.39996 12.6628 2.39996 12.0001C2.39996 11.3374 2.93722 10.8001 3.59996 10.8001H17.5029L12.3514 5.64863C11.8828 5.18 11.8828 4.4202 12.3514 3.95157Z"
                        stroke="black" stroke-opacity="0.2" stroke-linecap="round" stroke-linejoin="round" />
                    <path fill-rule="evenodd" clip-rule="evenodd"
                        d="M12.3514 3.95157C12.8201 3.48294 13.5799 3.48294 14.0485 3.95157L21.2485 11.1516C21.7171 11.6202 21.7171 12.38 21.2485 12.8486L14.0485 20.0486C13.5799 20.5173 12.8201 20.5173 12.3514 20.0486C11.8828 19.58 11.8828 18.8202 12.3514 18.3516L17.5029 13.2001L3.59996 13.2001C2.93722 13.2001 2.39996 12.6628 2.39996 12.0001C2.39996 11.3374 2.93722 10.8001 3.59996 10.8001H17.5029L12.3514 5.64863C11.8828 5.18 11.8828 4.4202 12.3514 3.95157Z"
                        stroke="black" stroke-opacity="0.2" stroke-linecap="round" stroke-linejoin="round" />
                    <path fill-rule="evenodd" clip-rule="evenodd"
                        d="M12.3514 3.95157C12.8201 3.48294 13.5799 3.48294 14.0485 3.95157L21.2485 11.1516C21.7171 11.6202 21.7171 12.38 21.2485 12.8486L14.0485 20.0486C13.5799 20.5173 12.8201 20.5173 12.3514 20.0486C11.8828 19.58 11.8828 18.8202 12.3514 18.3516L17.5029 13.2001L3.59996 13.2001C2.93722 13.2001 2.39996 12.6628 2.39996 12.0001C2.39996 11.3374 2.93722 10.8001 3.59996 10.8001H17.5029L12.3514 5.64863C11.8828 5.18 11.8828 4.4202 12.3514 3.95157Z"
                        stroke="black" stroke-opacity="0.2" stroke-linecap="round" stroke-linejoin="round" />
                </svg>