<svg width="1233" height="247" viewBox="0 0 1233 247" fill="none" xmlns="http://www.w3.org/2000/svg">
<g opacity="0.2">
<path d="M100.421 152.237V100.921H201.524V240.158C179.436 244.719 155.299 247 129.112 247H89.8321C57.4971 247 34.3844 240.5 20.494 227.5C6.83134 214.272 0 192.719 0 162.842V84.1579C0 54.2807 6.83134 32.8421 20.494 19.8421C34.3844 6.61403 57.4971 0 89.8321 0H113.4C141.864 0 166.001 2.05263 185.812 6.1579V58.1579H98.3712C81.0652 58.1579 72.4122 67.2807 72.4122 85.5263V161.474C72.4122 179.719 81.0652 188.842 98.3712 188.842H132.528V152.237H100.421Z" fill="white"/>
<path d="M404.839 243.579L394.251 207.658H322.522L311.933 243.579H236.788L318.423 3.42105H398.35L479.984 243.579H404.839ZM358.386 85.1842L338.575 152.921H378.197L358.386 85.1842Z" fill="white"/>
<path d="M588.995 94.7631H621.785C631.804 94.7631 636.814 90.4298 636.814 81.7632V72.5263C636.814 63.8596 631.804 59.5263 621.785 59.5263H588.995V94.7631ZM707.86 67.0526V78.6842C707.86 88.4912 705.583 97.0439 701.028 104.342C696.474 111.64 690.326 116.886 682.584 120.079C691.237 122.36 698.068 127.491 703.078 135.474C708.087 143.456 710.592 153.263 710.592 164.895V177.211C710.592 221.456 685.43 243.579 635.106 243.579H516.582V3.42105H635.789C659.016 3.42105 676.777 8.89473 689.074 19.8421C701.598 30.5614 707.86 46.2982 707.86 67.0526ZM588.995 187.474H621.443C626.681 187.474 630.78 186.105 633.74 183.368C636.7 180.632 638.18 176.754 638.18 171.737V163.868C638.18 158.851 636.7 154.974 633.74 152.237C630.78 149.5 626.681 148.132 621.443 148.132H588.995V187.474Z" fill="white"/>
<path d="M838.264 243.579H765.851V3.42105H838.264V243.579Z" fill="white"/>
<path d="M1027.41 3.42105H1099.82V243.579H1029.46L971.731 127.947V243.579H898.977V3.42105H969.34L1027.41 119.053V3.42105Z" fill="white"/>
<path d="M1233 243.579H1160.59V3.42105H1233V243.579Z" fill="white"/>
</g>
</svg>
